<?xml version="1.0" encoding="UTF-8"?>
<svg id="Layer_2" data-name="Layer 2" xmlns="http://www.w3.org/2000/svg" viewBox="0 0 639.61 84.52">
  <defs>
    <style>
      .cls-1 {
        letter-spacing: -.04em;
      }

      .cls-2 {
        fill: #004ab2;
      }

      .cls-2, .cls-3, .cls-4, .cls-5, .cls-6 {
        fill-rule: evenodd;
      }

      .cls-7 {
        letter-spacing: -.03em;
      }

      .cls-3 {
        fill: #00a6ff;
      }

      .cls-8, .cls-4, .cls-9 {
        fill: #fff;
      }

      .cls-9 {
        font-family: Geologica-Regular, Geologica;
        font-size: 24.15px;
      }

      .cls-5 {
        fill: #0067c8;
      }

      .cls-6 {
        fill: #0083e0;
      }

      .cls-10 {
        letter-spacing: -.03em;
      }

      .cls-11 {
        letter-spacing: -.03em;
      }
    </style>
  </defs>
  <g id="Layer_1-2" data-name="Layer 1">
    <g>
      <g>
        <g>
          <path class="cls-2" d="M14.77,11.46C6.61,11.46,0,18.05,0,26.19c0,5.36,2.87,10.05,7.17,12.63l9.92-27.18c-.75-.12-1.52-.18-2.32-.18"/>
          <path class="cls-6" d="M49.84,27.74c1.41-3.87,5.12-6.46,9.25-6.46.45,0,.9.03,1.35.09.19-.82.29-1.68.29-2.55,0-6.29-5.19-11.46-11.49-11.46-.87,0-1.73.1-2.55.29-3.74.86-6.89,3.55-8.24,7.25l-9.5,26.02h16.08s4.8-13.18,4.8-13.18Z"/>
          <path class="cls-3" d="M60.44,21.37c-.44-.06-.89-.09-1.35-.09-4.13,0-7.84,2.59-9.25,6.46l-4.81,13.18h14.06c5.4,0,9.85-4.44,9.85-9.82,0-4.93-3.72-9.06-8.5-9.72"/>
          <path class="cls-5" d="M32.83,0c-6.88,0-13.07,4.32-15.42,10.77l-.32.87-9.92,27.18c2.22,1.33,4.82,2.1,7.61,2.1h14.18s9.5-26.02,9.5-26.02c1.35-3.7,4.5-6.4,8.24-7.25-2.92-4.58-8.06-7.65-13.86-7.65"/>
          <path class="cls-4" d="M114.17,38.75c-3.06,1.46-6.33,2.71-11.86,2.71-11.56,0-19.29-7.37-19.29-18.54s8.26-18.53,19.77-18.53c4.36,0,8.01,1.06,10.83,2.36l-1.06,6.41c-2.31-1.11-5.01-2.15-9.14-2.15-7.71,0-12.93,4.13-12.93,11.85,0,7.32,4.75,12.12,12.8,12.12,4.07,0,7.27-1.01,9.87-2.57l1.01,6.33Z"/>
          <rect class="cls-8" x="151.23" y="4.91" width="6.81" height="36.01"/>
          <rect class="cls-8" x="164.47" y="4.91" width="6.81" height="36.01"/>
          <path class="cls-4" d="M185.53,30.31v10.6h-7.18V4.91h16.72c7.29,0,13.17,4.59,13.17,12.75,0,7.72-5.88,12.65-13.17,12.65h-9.54ZM185.53,11.11v13.02h8.72c3.8,0,6.59-2.63,6.59-6.47,0-4.19-2.84-6.55-6.59-6.55h-8.72Z"/>
          <path class="cls-4" d="M218.6,18.94c1.3-2.65,3.77-4,6.65-4,1.51,0,2.79.4,3.32.58l-.53,6.07c-.69-.24-1.81-.58-3.16-.58-3.01,0-6.17,1.12-6.17,6.37v13.55h-6.83s0-25.46,0-25.46h6.59l.14,3.47Z"/>
          <path class="cls-4" d="M243.45,14.93c7.84,0,13.64,5.75,13.64,13.26s-5.8,13.26-13.64,13.26-13.64-5.73-13.64-13.26c0-7.51,5.83-13.26,13.64-13.26M243.45,35.3c4.02,0,6.86-3.02,6.86-7.11s-2.84-7.08-6.86-7.08-6.86,3.02-6.86,7.08c0,4.08,2.87,7.11,6.86,7.11"/>
          <path class="cls-4" d="M138.19,19.54c-2-2.7-5.11-4.74-9.55-4.74-3.86,0-7.04,1.27-9.42,3.76-2.38,2.49-3.55,5.66-3.55,9.63s1.16,7.2,3.55,9.69c2.38,2.49,5.56,3.71,9.42,3.71,4.45,0,7.56-1.91,9.55-4.74v4.05h6.69V15.49h-6.69v4.05ZM130.22,35.75c-4.46,0-7.51-2.95-7.51-7.56s3.11-7.56,7.51-7.56,7.91,2.76,7.91,7.56-3.62,7.56-7.91,7.56"/>
        </g>
        <path class="cls-4" d="M418.74,12.26l-7.57,9.69V3.06h-6.52v36.94h6.52v-11.35l9.3,11.35h8.88l-12.63-14.74,10.9-13.01h-8.88ZM357.87,39.93v-10.72h4.65l8.12,10.79h8.26l-9.79-13.01c3.05-2.21,5.07-5.74,5.07-9.76,0-6.57-5.41-11.97-12.01-11.97h-10.9v34.66h6.59ZM357.87,11.91h4.3c2.98,0,5.41,2.42,5.41,5.4s-2.43,5.4-5.41,5.4h-4.3v-10.79ZM394.73,13.5v-1.18h6.32v27.74h-6.32v-1.25c-1.94,1.25-3.61,1.94-5.97,1.94-7.15,0-12.63-6.57-12.63-14.6s5.41-14.6,12.63-14.6c2.36,0,4.1.69,5.97,1.94ZM382.58,26.17c0,4.43,2.64,7.89,6.18,7.89s6.04-3.53,6.04-7.89-2.5-7.89-6.04-7.89-6.18,3.46-6.18,7.89ZM487.88,45.26l-94.47,8.09-8.19-8.09h102.66ZM445.4,12.26v16.33c0,3.04-2.08,5.67-5.21,5.67s-5.21-2.56-5.21-5.67V12.26h-6.32v16.33c0,6.71,4.58,12.11,11.31,12.11,3.12,0,5.34-1.73,5.34-1.73v1.04h6.32V12.26h-6.25ZM504.33,23.67v16.33h-6.25V12.26h6.32v1.04s2.22-1.73,5.34-1.73c6.73,0,11.31,5.4,11.31,12.11v16.33h-6.32v-16.33c0-3.11-2.15-5.67-5.21-5.67s-5.21,2.63-5.21,5.67ZM466.64,34.12c.76,0,1.53-.28,2.08-.69l4.16,5.53c-2.01,1.18-4.44,1.73-6.18,1.73-4.65,0-9.37-3.67-9.37-9.89v-11.97h-3.33v-6.57h3.33v-6.92h6.32v6.92h5.41v6.57h-5.41v11.9c0,2.63,1.94,3.39,2.98,3.39ZM470.8,26.17c0-8.16,5.28-14.6,12.56-14.6s13.67,6.57,12.08,16.54h-18.19c.83,6.37,8.05,9.62,12.36,3.25l5.55,3.18c-3.54,5.12-7.84,6.23-11.18,6.23-6.59,0-13.19-6.02-13.19-14.6ZM488.85,22.57h-11.38c1.32-6.5,10.2-6.92,11.38,0ZM541.32,37.65l-10.2-25.32c-.14-.35-.28-.69-.35-1.04-.07-.35-.14-.76-.14-1.11,0-1.11.35-1.94,1.11-2.7.76-.69,1.67-1.04,2.85-1.04.83,0,1.53.28,2.01.76.56.48,1.04,1.31,1.46,2.49l6.94,18.61,6.66-18.33c.42-1.31.97-2.21,1.53-2.77.56-.48,1.32-.76,2.22-.76,1.18,0,2.08.28,2.71.9.62.62.97,1.45.97,2.56,0,.36-.05.72-.11,1.13h0s-.02.18-.02.18c-.07.42-.21.9-.35,1.31l-9.86,24.84c-.42,1.11-.97,1.94-1.53,2.42-.62.48-1.39.76-2.29.76s-1.6-.21-2.15-.69c-.49-.48-.97-1.18-1.46-2.21ZM567.35,39.24c.55-.83.83-2.08.83-3.81v-13.98c0-1.73-.28-2.97-.83-3.81-.56-.83-1.39-1.25-2.57-1.25s-2.08.42-2.64,1.25c-.56.83-.83,2.08-.83,3.81v13.98c0,1.73.28,2.98.83,3.81.55.83,1.46,1.25,2.64,1.25,1.11,0,2.01-.42,2.57-1.25ZM578.73,16.62c.83-.69,1.74-1.25,2.71-1.59.97-.35,2.01-.55,3.12-.55,3.19,0,5.9,1.25,8.12,3.81,2.22,2.49,3.26,5.67,3.26,9.48,0,3.6-1.11,6.64-3.4,9.13-2.22,2.49-4.93,3.81-7.98,3.81-1.25,0-2.36-.21-3.4-.62-1.04-.42-1.87-1.04-2.64-1.87-.49.76-.97,1.38-1.6,1.8-.55.42-1.25.62-1.94.62-1.25,0-2.15-.42-2.78-1.31-.62-.9-.9-2.21-.9-4.08V11.84c0-1.8.28-3.18.9-4.08.62-.9,1.53-1.31,2.78-1.31s2.22.42,2.78,1.31c.62.9.9,2.21.9,4.08v4.77h.07ZM578.18,27.62c0,2.01.49,3.67,1.46,4.84.97,1.25,2.29,1.87,3.82,1.87s2.85-.62,3.82-1.87c.97-1.25,1.53-2.84,1.53-4.84s-.49-3.67-1.46-4.91c-.97-1.25-2.29-1.87-3.82-1.87s-2.85.62-3.82,1.87c-1.04,1.25-1.53,2.91-1.53,4.91ZM604.3,29.9c.22,1.29,1.2,2.32,2.12,3.04.97.76,2.29,1.18,3.89,1.18,1.39,0,2.92-.42,4.65-1.18,1.74-.83,2.78-1.18,3.12-1.18.9,0,1.6.28,2.15.83.55.55.83,1.25.83,2.08,0,1.59-1.11,2.97-3.33,4.29-2.22,1.25-4.86,1.94-7.84,1.94-3.68,0-6.73-1.25-9.16-3.74-2.43-2.49-3.68-5.6-3.68-9.34s1.18-6.92,3.54-9.41c2.36-2.49,5.35-3.74,8.89-3.74s6.32,1.18,8.61,3.53c2.29,2.35,3.47,5.26,3.47,8.65,0,1.11-.28,1.87-.76,2.35-.49.42-1.46.69-2.91.69h-13.58ZM614.9,25.34h-10.9c.28-1.45.9-2.91,1.94-3.81.97-.9,2.29-1.31,3.68-1.31s2.57.48,3.61,1.38c1.04.97,1.6,2.35,1.66,3.74ZM623.64,35.09v-14.87c0-1.8.28-3.18.9-4.01.62-.9,1.53-1.31,2.78-1.31.76,0,1.39.21,2.01.55.56.42,1.11.97,1.53,1.8.76-.83,1.6-1.45,2.43-1.87.83-.42,1.73-.62,2.57-.62,1.04,0,1.87.35,2.64,1.11.76.69,1.11,1.59,1.11,2.56,0,1.45-1.39,2.7-4.09,3.74-.97.35-1.74.62-2.22.9-.9.42-1.53.9-1.87,1.45-.28.55-.49,1.52-.49,2.91v7.68c0,1.8-.28,3.18-.9,4.08-.62.9-1.53,1.31-2.78,1.31s-2.15-.42-2.77-1.31c-.49-.9-.83-2.28-.83-4.08ZM562.22,7.55c-.76.76-1.18,1.66-1.18,2.7,0,1.11.35,2.01,1.18,2.7.76.76,1.66,1.11,2.77,1.11,1.04,0,1.94-.35,2.71-1.11.76-.69,1.11-1.66,1.11-2.7s-.35-1.94-1.11-2.7c-.76-.76-1.66-1.11-2.71-1.11-1.11,0-2.01.35-2.77,1.11Z"/>
        <g>
          <rect class="cls-8" x="282.92" y="23.93" width="42.53" height=".43" transform="translate(72.02 222.16) rotate(-45)"/>
          <rect class="cls-8" x="282.92" y="23.93" width="42.53" height=".43" transform="translate(106.16 -208.02) rotate(45)"/>
        </g>
      </g>
      <text class="cls-9" transform="translate(351.22 75.81) scale(1.04 1)"><tspan class="cls-10" x="0" y="0">f</tspan><tspan class="cls-11" x="8.52" y="0">or busine</tspan><tspan class="cls-1" x="109.6" y="0">s</tspan><tspan class="cls-7" x="120.56" y="0">s</tspan></text>
    </g>
  </g>
</svg>