<?xml version="1.0" encoding="UTF-8"?>
<svg id="Layer_2" data-name="Layer 2" xmlns="http://www.w3.org/2000/svg" viewBox="0 0 990.76 152.76">
  <defs>
    <style>
      .cls-1 {
        fill: #fff;
      }
    </style>
  </defs>
  <g id="Layer_1-2" data-name="Layer 1">
    <g>
      <g>
        <path class="cls-1" d="M847.54,19.44c-4.01-6.21-9.54-10.99-16.64-14.37-7.1-3.38-15.27-5.07-24.49-5.07-7.93,0-15.27,1.14-22.01,3.41-6.76,2.27-12.71,5.68-17.89,10.23l5.18,8.88c3.72-3.72,8.56-6.53,14.51-8.46,5.95-1.93,12.15-2.9,18.55-2.9,11.5,0,20.55,2.74,27.13,8.21,6.56,5.49,9.86,12.94,9.86,22.38,0,6.47-1.66,12.92-4.96,19.32-1.82,3.52-4.15,7.19-7.02,11.02h13.68c2.86-4.33,5-8.37,6.45-12.12,2.41-6.23,3.62-12.37,3.62-18.44,0-8.54-2-15.91-5.99-22.11ZM764.91,136.62l-.66.61v10.54h92.81v-11.15h-92.15Z"/>
        <path class="cls-1" d="M984.15,77.67c-4.41-6.93-10.36-12.34-17.88-16.23-7.51-3.88-15.88-5.82-25.12-5.82s-17.52,2.16-25.1,6.5-13.55,10.17-17.88,17.47c1.16-8.21,3.59-16.19,7.27-23.93,3.68-7.76,8.77-14.83,15.25-21.24,6.47-6.4,14.42-11.73,23.81-15.96,9.41-4.25,20.34-6.95,32.81-8.13l-4.54-10.33c-12.74,1.87-24.49,5.36-35.24,10.49-10.75,5.13-20.1,11.7-28.01,19.69-7.92,7.98-14.06,17.14-18.44,27.43-3.99,9.38-6.16,19.53-6.5,30.49l16.54,4.23c.84-2.57,2-5.02,3.49-7.34,3.48-5.41,8.17-9.7,14.11-12.87,5.92-3.17,12.57-4.75,19.94-4.75s14.03,1.58,19.95,4.75c5.92,3.17,10.62,7.47,14.11,12.87,3.48,5.41,5.21,11.52,5.21,18.34s-1.69,13.11-5.07,18.49c-3.38,5.37-8.01,9.61-13.9,12.66-5.89,3.07-12.65,4.6-20.31,4.6-6.92,0-13.15-1.25-18.66-3.78l-2.99,11.68c6.56,2.59,13.79,3.88,21.66,3.88s14.55-1.25,20.89-3.77c6.34-2.53,11.83-6,16.48-10.44,4.65-4.44,8.27-9.67,10.85-15.66,2.59-6,3.88-12.44,3.88-19.32,0-9.09-2.2-17.1-6.61-24.02Z"/>
      </g>
      <path class="cls-1" d="M268.07,2.24v148.27s-11.41,0-11.41,0L143.73,15.88v134.63s-10.06,0-10.06,0V2.24s11.41,0,11.41,0l112.94,134.4V2.24s10.06,0,10.06,0Z"/>
      <path class="cls-1" d="M414.1,10.96h-52.55s0,139.55,0,139.55h-10.06s0-139.55,0-139.55h-52.55s0-8.72,0-8.72h115.17s0,8.72,0,8.72Z"/>
      <path class="cls-1" d="M696.1,134.63l1.79,9.17c-2.46,1.12-5.14,2.24-8.28,3.35-2.91,1.12-8.05,2.24-14.98,3.58-6.93,1.34-13.86,2.01-20.8,2.01-49.2.67-84.53-31.76-83.64-76.71,0-44.95,33.1-76.04,81.4-76.04,17,0,31.53,2.91,43.83,8.72l-1.34,10.06c-12.3-6.26-26.61-9.39-42.71-9.39-21.24,0-38.46,6.26-51.66,18.56-13.19,12.3-19.68,28.4-19.68,48.08,0,19.9,6.71,36.23,20.35,48.75,13.64,12.3,31.53,18.56,53.23,18.56,16.77,0,31.09-2.91,42.49-8.72Z"/>
      <rect class="cls-1" x="0" y="2.68" width="102.82" height="8.66"/>
      <rect class="cls-1" x="0" y="2.68" width="102.82" height="8.66"/>
      <rect class="cls-1" x="0" y="70.01" width="102.82" height="8.66"/>
      <rect class="cls-1" x="0" y="70.01" width="102.82" height="8.66"/>
      <rect class="cls-1" x="0" y="140.91" width="102.82" height="8.66"/>
      <rect class="cls-1" x="0" y="140.91" width="102.82" height="8.66"/>
      <rect class="cls-1" x="444.31" y="2.68" width="102.82" height="8.66"/>
      <rect class="cls-1" x="444.31" y="2.68" width="102.82" height="8.66"/>
      <rect class="cls-1" x="444.31" y="70.01" width="102.82" height="8.66"/>
      <rect class="cls-1" x="444.31" y="70.01" width="102.82" height="8.66"/>
      <rect class="cls-1" x="444.31" y="140.91" width="102.82" height="8.66"/>
      <rect class="cls-1" x="444.31" y="140.91" width="102.82" height="8.66"/>
    </g>
  </g>
</svg>