<?xml version="1.0" encoding="UTF-8"?>
<svg id="Layer_2" data-name="Layer 2" xmlns="http://www.w3.org/2000/svg" viewBox="0 0 134.57 16.03">
  <defs>
    <style>
      .cls-1, .cls-2 {
        fill: #fff;
      }

      .cls-2 {
        fill-rule: evenodd;
      }
    </style>
  </defs>
  <g id="Layer_1-2" data-name="Layer 1">
    <g>
      <g>
        <g>
          <g>
            <path class="cls-2" d="M24.02,8.15c-.64.31-1.33.57-2.5.57-2.43,0-4.06-1.55-4.06-3.9s1.74-3.9,4.16-3.9c.92,0,1.68.22,2.28.5l-.22,1.35c-.49-.23-1.05-.45-1.92-.45-1.62,0-2.72.87-2.72,2.49,0,1.54,1,2.55,2.69,2.55.86,0,1.53-.21,2.08-.54l.21,1.33Z"/>
            <rect class="cls-1" x="31.82" y="1.03" width="1.43" height="7.58"/>
            <rect class="cls-1" x="34.6" y="1.03" width="1.43" height="7.58"/>
            <path class="cls-2" d="M39.03,6.38v2.23h-1.51V1.03h3.52c1.53,0,2.77.96,2.77,2.68,0,1.62-1.24,2.66-2.77,2.66h-2.01ZM39.03,2.34v2.74h1.83c.8,0,1.39-.55,1.39-1.36,0-.88-.6-1.38-1.39-1.38h-1.83Z"/>
            <path class="cls-2" d="M45.99,3.98c.27-.56.79-.84,1.4-.84.32,0,.59.08.7.12l-.11,1.28c-.15-.05-.38-.12-.67-.12-.63,0-1.3.23-1.3,1.34v2.85h-1.44s0-5.36,0-5.36h1.39l.03.73Z"/>
            <path class="cls-2" d="M51.22,3.14c1.65,0,2.87,1.21,2.87,2.79s-1.22,2.79-2.87,2.79-2.87-1.21-2.87-2.79c0-1.58,1.23-2.79,2.87-2.79M51.22,7.43c.85,0,1.44-.64,1.44-1.49s-.6-1.49-1.44-1.49-1.44.64-1.44,1.49c0,.86.6,1.49,1.44,1.49"/>
            <path class="cls-2" d="M29.07,4.11c-.42-.57-1.07-1-2.01-1-.81,0-1.48.27-1.98.79-.5.52-.75,1.19-.75,2.03s.25,1.51.75,2.04c.5.52,1.17.78,1.98.78.94,0,1.59-.4,2.01-1v.85h1.41V3.26h-1.41v.85ZM27.4,7.52c-.94,0-1.58-.62-1.58-1.59s.65-1.59,1.58-1.59,1.66.58,1.66,1.59-.76,1.59-1.66,1.59"/>
          </g>
          <path class="cls-2" d="M88.1,2.58l-1.59,2.04V.64h-1.37v7.77h1.37v-2.39l1.96,2.39h1.87l-2.66-3.1,2.29-2.74h-1.87ZM75.29,8.4v-2.26h.98l1.71,2.27h1.74l-2.06-2.74c.64-.47,1.07-1.21,1.07-2.05,0-1.38-1.14-2.52-2.53-2.52h-2.29v7.29h1.39ZM75.29,2.51h.91c.63,0,1.14.51,1.14,1.14s-.51,1.14-1.14,1.14h-.91v-2.27ZM83.05,2.84v-.25h1.33v5.84h-1.33v-.26c-.41.26-.76.41-1.26.41-1.5,0-2.66-1.38-2.66-3.07s1.14-3.07,2.66-3.07c.5,0,.86.15,1.26.41ZM80.49,5.5c0,.93.55,1.66,1.3,1.66s1.27-.74,1.27-1.66-.53-1.66-1.27-1.66-1.3.73-1.3,1.66ZM102.64,9.52l-19.88,1.7-1.72-1.7h21.6ZM93.71,2.58v3.44c0,.64-.44,1.19-1.1,1.19s-1.1-.54-1.1-1.19v-3.44h-1.33v3.44c0,1.41.96,2.55,2.38,2.55.66,0,1.12-.36,1.12-.36v.22h1.33V2.58h-1.31ZM106.1,4.98v3.44h-1.31V2.58h1.33v.22s.47-.36,1.12-.36c1.42,0,2.38,1.14,2.38,2.55v3.44h-1.33v-3.44c0-.65-.45-1.19-1.1-1.19s-1.1.55-1.1,1.19ZM98.17,7.18c.16,0,.32-.06.44-.15l.88,1.16c-.42.25-.93.36-1.3.36-.98,0-1.97-.77-1.97-2.08v-2.52h-.7v-1.38h.7v-1.46h1.33v1.46h1.14v1.38h-1.14v2.5c0,.55.41.71.63.71ZM99.05,5.5c0-1.72,1.11-3.07,2.64-3.07s2.88,1.38,2.54,3.48h-3.83c.18,1.34,1.69,2.02,2.6.68l1.17.67c-.74,1.08-1.65,1.31-2.35,1.31-1.39,0-2.77-1.27-2.77-3.07ZM102.85,4.75h-2.39c.28-1.37,2.15-1.46,2.39,0ZM113.89,7.92l-2.15-5.33c-.03-.07-.06-.15-.07-.22-.01-.07-.03-.16-.03-.23,0-.23.07-.41.23-.57.16-.15.35-.22.6-.22.18,0,.32.06.42.16.12.1.22.28.31.52l1.46,3.92,1.4-3.86c.09-.28.2-.47.32-.58.12-.1.28-.16.47-.16.25,0,.44.06.57.19.13.13.2.31.2.54,0,.08-.01.15-.02.24h0s0,.04,0,.04c-.01.09-.04.19-.07.28l-2.07,5.23c-.09.23-.2.41-.32.51-.13.1-.29.16-.48.16s-.34-.04-.45-.15c-.1-.1-.2-.25-.31-.47ZM119.36,8.26c.12-.17.17-.44.17-.8v-2.94c0-.36-.06-.63-.17-.8-.12-.17-.29-.26-.54-.26s-.44.09-.55.26c-.12.17-.18.44-.18.8v2.94c0,.36.06.63.18.8.12.17.31.26.55.26.23,0,.42-.09.54-.26ZM121.76,3.5c.18-.15.37-.26.57-.33.2-.07.42-.12.66-.12.67,0,1.24.26,1.71.8.47.52.69,1.19.69,1.99,0,.76-.23,1.4-.72,1.92-.47.52-1.04.8-1.68.8-.26,0-.5-.04-.72-.13-.22-.09-.39-.22-.55-.39-.1.16-.2.29-.34.38-.12.09-.26.13-.41.13-.26,0-.45-.09-.58-.28-.13-.19-.19-.47-.19-.86V2.49c0-.38.06-.67.19-.86.13-.19.32-.28.58-.28s.47.09.58.28c.13.19.19.47.19.86v1h.01ZM121.64,5.81c0,.42.1.77.31,1.02.2.26.48.39.8.39s.6-.13.8-.39c.2-.26.32-.6.32-1.02s-.1-.77-.31-1.03c-.2-.26-.48-.39-.8-.39s-.6.13-.8.39c-.22.26-.32.61-.32,1.03ZM127.14,6.29c.05.27.25.49.45.64.2.16.48.25.82.25.29,0,.61-.09.98-.25.37-.17.58-.25.66-.25.19,0,.34.06.45.17.12.12.18.26.18.44,0,.33-.23.63-.7.9-.47.26-1.02.41-1.65.41-.77,0-1.42-.26-1.93-.79-.51-.52-.77-1.18-.77-1.97s.25-1.46.74-1.98c.5-.52,1.12-.79,1.87-.79s1.33.25,1.81.74c.48.49.73,1.11.73,1.82,0,.23-.06.39-.16.49-.1.09-.31.15-.61.15h-2.86ZM129.37,5.33h-2.29c.06-.31.19-.61.41-.8.2-.19.48-.28.77-.28s.54.1.76.29c.22.2.34.49.35.79ZM131.21,7.38v-3.13c0-.38.06-.67.19-.84.13-.19.32-.28.58-.28.16,0,.29.04.42.12.12.09.23.2.32.38.16-.17.34-.31.51-.39.18-.09.36-.13.54-.13.22,0,.39.07.55.23.16.15.23.33.23.54,0,.31-.29.57-.86.79-.2.07-.37.13-.47.19-.19.09-.32.19-.39.31-.06.12-.1.32-.1.61v1.62c0,.38-.06.67-.19.86-.13.19-.32.28-.58.28s-.45-.09-.58-.28c-.1-.19-.18-.48-.18-.86ZM118.28,1.59c-.16.16-.25.35-.25.57,0,.23.07.42.25.57.16.16.35.23.58.23.22,0,.41-.07.57-.23.16-.15.23-.35.23-.57s-.07-.41-.23-.57c-.16-.16-.35-.23-.57-.23-.23,0-.42.07-.58.23Z"/>
          <g>
            <rect class="cls-1" x="59.52" y="5.03" width="8.95" height=".09" transform="translate(15.15 46.74) rotate(-45)"/>
            <rect class="cls-1" x="59.52" y="5.03" width="8.95" height=".09" transform="translate(22.34 -43.76) rotate(45)"/>
          </g>
        </g>
        <g>
          <path class="cls-1" d="M74.03,13.9v-.46h.6v.46h-.6ZM74.55,15.95v-2.93c0-.25.08-.45.22-.59.15-.14.36-.22.62-.22.1,0,.18,0,.26.03.08.02.15.05.22.08l-.11.44c-.05-.03-.1-.05-.15-.06-.05-.01-.09-.02-.14-.02-.11,0-.19.03-.26.08-.07.05-.1.14-.1.27v.39h.69v.46h-.69v2.05h-.58Z"/>
          <path class="cls-1" d="M77.34,16.03c-.27,0-.51-.06-.73-.18-.21-.12-.38-.28-.5-.49-.12-.2-.18-.42-.18-.67,0-.18.03-.35.1-.51.07-.16.17-.3.3-.43.13-.12.28-.22.45-.29.17-.07.36-.11.57-.11.27,0,.52.06.73.18.21.12.38.28.5.49.12.2.18.42.18.67,0,.18-.03.35-.1.51-.07.16-.17.3-.29.43-.13.12-.28.22-.45.29-.17.07-.36.11-.57.11ZM77.34,15.53c.16,0,.31-.03.43-.1s.22-.17.3-.29c.07-.13.11-.27.11-.44s-.04-.32-.11-.45c-.07-.13-.17-.22-.3-.29s-.27-.1-.43-.1-.31.03-.43.1-.22.16-.29.29c-.07.13-.11.27-.11.45s.04.32.11.44c.07.13.17.22.3.29s.27.1.43.1Z"/>
          <path class="cls-1" d="M79.18,15.95v-2.51h.58v.35c.1-.16.22-.27.36-.33.14-.06.29-.1.45-.1.05,0,.1,0,.15,0,.05,0,.09.01.14.02l-.08.58c-.05-.02-.11-.03-.16-.04-.05,0-.11-.01-.16-.01-.2,0-.37.06-.5.18s-.2.28-.2.49v1.37h-.58Z"/>
          <path class="cls-1" d="M83.84,16.03c-.17,0-.33-.02-.47-.07s-.26-.12-.36-.2c-.1-.09-.18-.19-.25-.3l.08-.12v.63h-.52v-3.66h.58v1.72l-.12-.12c.12-.16.26-.29.44-.39.17-.1.38-.14.62-.14.26,0,.49.06.69.18.2.12.35.28.46.48.11.2.17.43.17.67,0,.19-.03.37-.1.53-.06.16-.15.3-.27.42s-.25.21-.41.28c-.16.07-.34.1-.53.1ZM83.73,15.53c.16,0,.3-.03.43-.1s.22-.17.3-.29c.07-.13.11-.27.11-.44s-.04-.32-.11-.45c-.07-.13-.17-.22-.29-.29s-.27-.1-.43-.1-.31.03-.43.1c-.13.07-.22.16-.3.29-.07.13-.11.27-.11.45s.04.32.11.44c.07.13.17.22.3.29.12.07.27.1.43.1Z"/>
          <path class="cls-1" d="M86.58,16.03c-.23,0-.43-.05-.58-.14s-.27-.21-.34-.36c-.08-.15-.11-.31-.11-.49v-1.61h.58v1.5c0,.17.05.31.16.42.11.1.25.16.44.16.12,0,.23-.03.33-.08.1-.05.17-.13.23-.23.06-.1.09-.21.09-.34v-1.44h.58v2.51h-.52v-.3c-.1.12-.22.21-.36.28-.14.07-.3.1-.49.1Z"/>
          <path class="cls-1" d="M89.48,16.02c-.22,0-.42-.03-.61-.09-.19-.06-.35-.14-.48-.24l.22-.41c.12.09.26.16.41.22.15.05.3.08.45.08.17,0,.3-.03.4-.09.09-.06.14-.14.14-.24s-.04-.17-.12-.22c-.08-.05-.24-.1-.47-.15-.33-.07-.57-.16-.72-.28-.15-.12-.22-.29-.22-.5,0-.15.04-.28.13-.4s.21-.21.36-.27c.15-.07.33-.1.53-.1s.38.03.55.08c.17.05.32.13.45.23l-.21.41c-.06-.06-.14-.1-.23-.14s-.18-.07-.27-.1c-.1-.02-.19-.03-.29-.03-.15,0-.27.03-.36.08-.09.05-.14.13-.14.23s.04.17.13.22c.09.05.24.1.45.14.34.07.58.17.72.28s.22.28.22.49c0,.16-.04.3-.13.42-.09.12-.21.21-.38.28-.16.07-.35.1-.56.1Z"/>
          <path class="cls-1" d="M91.33,12.98c-.1,0-.19-.03-.27-.1-.08-.06-.11-.15-.11-.25s.04-.19.11-.25c.08-.07.16-.1.27-.1s.19.03.27.1c.08.07.11.15.11.25s-.04.19-.11.25c-.08.06-.16.1-.27.1ZM91.04,15.95v-2.51h.58v2.51h-.58Z"/>
          <path class="cls-1" d="M92.27,15.95v-2.51h.58v.32c.11-.14.24-.24.38-.3.14-.06.29-.09.45-.09.24,0,.44.05.59.14s.27.21.35.35c.08.14.11.29.11.44v1.66h-.58v-1.48c0-.18-.06-.32-.17-.43s-.27-.16-.47-.16c-.13,0-.25.03-.35.08-.1.06-.18.13-.24.23-.06.1-.09.21-.09.35v1.41h-.58Z"/>
          <path class="cls-1" d="M96.55,16.03c-.28,0-.53-.06-.74-.17s-.38-.27-.5-.47c-.12-.2-.18-.43-.18-.7,0-.19.03-.37.1-.53.07-.16.16-.31.29-.43s.27-.21.44-.28c.17-.07.35-.1.55-.1.22,0,.41.04.58.11.17.07.31.18.42.31.11.13.19.29.24.46.05.18.05.37.02.58h-2.08c0,.15.03.28.1.39.07.11.18.2.31.26s.29.09.48.09c.15,0,.29-.02.43-.07s.26-.11.38-.19l.22.4c-.08.07-.19.12-.31.17s-.24.08-.37.11c-.13.02-.26.04-.38.04ZM95.72,14.4h1.48c0-.19-.07-.34-.19-.45s-.29-.16-.51-.16-.39.05-.53.16c-.14.11-.22.26-.24.45Z"/>
          <path class="cls-1" d="M99.1,16.02c-.22,0-.42-.03-.61-.09-.19-.06-.35-.14-.48-.24l.22-.41c.12.09.26.16.41.22.15.05.3.08.45.08.17,0,.3-.03.4-.09.09-.06.14-.14.14-.24s-.04-.17-.12-.22c-.08-.05-.24-.1-.47-.15-.33-.07-.57-.16-.72-.28-.15-.12-.22-.29-.22-.5,0-.15.04-.28.13-.4s.21-.21.36-.27c.15-.07.33-.1.53-.1s.38.03.55.08c.17.05.32.13.45.23l-.21.41c-.06-.06-.14-.1-.23-.14s-.18-.07-.27-.1c-.1-.02-.19-.03-.29-.03-.15,0-.27.03-.36.08-.09.05-.14.13-.14.23s.04.17.13.22c.09.05.24.1.45.14.34.07.58.17.72.28s.22.28.22.49c0,.16-.04.3-.13.42-.09.12-.21.21-.38.28-.16.07-.35.1-.56.1Z"/>
          <path class="cls-1" d="M101.49,16.02c-.22,0-.42-.03-.61-.09-.19-.06-.35-.14-.48-.24l.22-.41c.12.09.26.16.41.22.15.05.3.08.45.08.17,0,.3-.03.4-.09.09-.06.14-.14.14-.24s-.04-.17-.12-.22c-.08-.05-.24-.1-.47-.15-.33-.07-.57-.16-.72-.28-.15-.12-.22-.29-.22-.5,0-.15.04-.28.13-.4s.21-.21.36-.27c.15-.07.33-.1.53-.1s.38.03.55.08c.17.05.32.13.45.23l-.21.41c-.06-.06-.14-.1-.23-.14s-.18-.07-.27-.1c-.1-.02-.19-.03-.29-.03-.15,0-.27.03-.36.08-.09.05-.14.13-.14.23s.04.17.13.22c.09.05.24.1.45.14.34.07.58.17.72.28s.22.28.22.49c0,.16-.04.3-.13.42-.09.12-.21.21-.38.28-.16.07-.35.1-.56.1Z"/>
        </g>
      </g>
      <g>
        <path class="cls-2" d="M3.15,2.41s-.03,0-.04,0c-1.72,0-3.11,1.39-3.11,3.1,0,.97.45,1.83,1.14,2.4L3.15,2.41Z"/>
        <path class="cls-2" d="M10.08,5.69c.36-.98,1.3-1.64,2.35-1.64.11,0,.23,0,.34.02,0-.04,0-.07,0-.11,0-1.32-1.09-2.41-2.42-2.41-.18,0-.36.02-.54.06-.79.18-1.45.75-1.73,1.53l-2,5.47h2.92l1.07-2.92Z"/>
        <path class="cls-2" d="M12.71,4.5c-.09-.01-.19-.02-.28-.02-.87,0-1.65.54-1.95,1.36l-1.01,2.77h2.96c1.14,0,2.07-.93,2.07-2.07,0-1.04-.78-1.91-1.79-2.05"/>
        <path class="cls-2" d="M7.68,2.99c.31-.85,1-1.49,1.86-1.75-.64-.75-1.59-1.24-2.64-1.24-1.45,0-2.75.91-3.24,2.27l-.07.18-2.09,5.72c.47.28,1.01.44,1.6.44h2.52l2.05-5.62Z"/>
      </g>
    </g>
  </g>
</svg>